#Comment line ignore any data following # character 
#Hierarchical Translation and Rotation (.htr) file 
[Header]	
#Header keywords are followed by a single value 
FileType HTR		#Single word string
DataType HTRS		#Translation followed by rotation and scale data
FileVersion 1		#integer
NumSegments 84		#integer
NumFrames 2		#integer
DataFrameRate 30		#integer, data frame rate in this file
EulerRotationOrder ZYX
CalibrationUnits mm
RotationUnits Degrees
GlobalAxisofGravity Y
BoneLengthAxis Y
ScaleFactor 1.00
[SegmentNames&Hierarchy]
#CHILD	PARENT
MASTER GLOBAL
root MASTER
chest root
L_mid_tent01 root
R_mid_tent01 root
spine01 root
Bip01_Neck chest
L_humerus chest
R_humerus chest
weapon_bone chest
Bip01_Head Bip01_Neck
eye_left_bone Bip01_Head
eye_right_bone Bip01_Head
L_forearm L_humerus
L_front_hand L_forearm
L_weapon_bone L_forearm
L_front_hand01_01 L_front_hand
L_front_hand02_01 L_front_hand
L_front_hand03_01 L_front_hand
L_front_hand01_02 L_front_hand01_01
L_front_hand02_02 L_front_hand02_01
L_front_hand03_02 L_front_hand03_01
R_forearm R_humerus
R_front_hand R_forearm
R_weapon_bone R_forearm
R_front_hand01_01 R_front_hand
R_front_hand02_01 R_front_hand
R_front_hand03_01 R_front_hand
R_front_hand01_02 R_front_hand01_01
R_front_hand02_02 R_front_hand02_01
R_front_hand03_02 R_front_hand03_01
null_rope01_connect L_mid_tent01
Rope1_Seg01 null_rope01_connect
Rope1_Seg02 Rope1_Seg01
Rope1_Seg03 Rope1_Seg02
Rope1_Seg04 Rope1_Seg03
Rope1_Seg05 Rope1_Seg04
Rope1_Seg06 Rope1_Seg05
Rope1_Seg07 Rope1_Seg06
Rope1_Seg09 Rope1_Seg07
L_mid_hand01 Rope1_Seg09
L_mid_hand02 Rope1_Seg09
L_mid_hand03 Rope1_Seg09
null_rope02_connect R_mid_tent01
Rope2_Seg01 null_rope02_connect
Rope2_Seg02 Rope2_Seg01
Rope2_Seg03 Rope2_Seg02
Rope2_Seg04 Rope2_Seg03
Rope2_Seg05 Rope2_Seg04
Rope2_Seg06 Rope2_Seg05
Rope2_Seg07 Rope2_Seg06
Rope2_Seg09 Rope2_Seg07
R_mid_hand01 Rope2_Seg09
R_mid_hand02 Rope2_Seg09
R_mid_hand03 Rope2_Seg09
spine02 spine01
spine03 spine02
pelvis spine03
null_rope03_connect pelvis
null_rope04_connect pelvis
Rope3_Seg01 null_rope03_connect
Rope3_Seg02 Rope3_Seg01
Rope3_Seg03 Rope3_Seg02
Rope3_Seg04 Rope3_Seg03
Rope3_Seg05 Rope3_Seg04
Rope3_Seg06 Rope3_Seg05
Rope3_Seg07 Rope3_Seg06
Rope3_Seg08 Rope3_Seg07
Rope3_Seg09 Rope3_Seg08
R_rear_hand01 Rope3_Seg09
R_rear_hand02 Rope3_Seg09
R_rear_hand03 Rope3_Seg09
Rope4_Seg01 null_rope04_connect
Rope4_Seg02 Rope4_Seg01
Rope4_Seg03 Rope4_Seg02
Rope4_Seg04 Rope4_Seg03
Rope4_Seg05 Rope4_Seg04
Rope4_Seg06 Rope4_Seg05
Rope4_Seg07 Rope4_Seg06
Rope4_Seg08 Rope4_Seg07
Rope4_Seg09 Rope4_Seg08
L_rear_hand01 Rope4_Seg09
L_rear_hand02 Rope4_Seg09
L_rear_hand03 Rope4_Seg09
[BasePosition]
#SegmentName Tx, Ty, Tz, Rx, Ry, Rz, BoneLength
MASTER 0.000000 0.000000 0.000000 -90.000000 0.000000 0.000000 10.000000 
root 0.000000 0.000000 0.000000 0.000000 0.000000 0.000000 10.000000 
chest 0.000000 0.000000 0.000000 0.000000 0.000000 0.000000 10.000000 
L_mid_tent01 0.000000 0.000000 0.000000 0.000000 0.000000 0.000000 10.000000 
R_mid_tent01 0.000000 0.000000 0.000000 0.000000 0.000000 0.000000 10.000000 
spine01 0.000000 0.000000 0.000000 0.000000 0.000000 0.000000 10.000000 
Bip01_Neck 0.000000 0.000000 0.000000 0.000000 0.000000 0.000000 10.000000 
L_humerus 0.000000 0.000000 0.000000 0.000000 0.000000 0.000000 10.000000 
R_humerus 0.000000 0.000000 0.000000 0.000000 0.000000 0.000000 10.000000 
weapon_bone 0.000000 0.000000 0.000000 0.000000 0.000000 0.000000 10.000000 
Bip01_Head 0.000000 0.000000 0.000000 0.000000 0.000000 0.000000 10.000000 
eye_left_bone 0.000000 0.000000 0.000000 0.000000 0.000000 0.000000 10.000000 
eye_right_bone 0.000000 0.000000 0.000000 0.000000 0.000000 0.000000 10.000000 
L_forearm 0.000000 0.000000 0.000000 0.000000 0.000000 0.000000 10.000000 
L_front_hand 0.000000 0.000000 0.000000 0.000000 0.000000 0.000000 10.000000 
L_weapon_bone 0.000000 0.000000 0.000000 0.000000 0.000000 0.000000 10.000000 
L_front_hand01_01 0.000000 0.000000 0.000000 0.000000 0.000000 0.000000 10.000000 
L_front_hand02_01 0.000000 0.000000 0.000000 0.000000 0.000000 0.000000 10.000000 
L_front_hand03_01 0.000000 0.000000 0.000000 0.000000 0.000000 0.000000 10.000000 
L_front_hand01_02 0.000000 0.000000 0.000000 0.000000 0.000000 0.000000 10.000000 
L_front_hand02_02 0.000000 0.000000 0.000000 0.000000 0.000000 0.000000 10.000000 
L_front_hand03_02 0.000000 0.000000 0.000000 0.000000 0.000000 0.000000 10.000000 
R_forearm 0.000000 0.000000 0.000000 0.000000 0.000000 0.000000 10.000000 
R_front_hand 0.000000 0.000000 0.000000 0.000000 0.000000 0.000000 10.000000 
R_weapon_bone 0.000000 0.000000 0.000000 0.000000 0.000000 0.000000 10.000000 
R_front_hand01_01 0.000000 0.000000 0.000000 0.000000 0.000000 0.000000 10.000000 
R_front_hand02_01 0.000000 0.000000 0.000000 0.000000 0.000000 0.000000 10.000000 
R_front_hand03_01 0.000000 0.000000 0.000000 0.000000 0.000000 0.000000 10.000000 
R_front_hand01_02 0.000000 0.000000 0.000000 0.000000 0.000000 0.000000 10.000000 
R_front_hand02_02 0.000000 0.000000 0.000000 0.000000 0.000000 0.000000 10.000000 
R_front_hand03_02 0.000000 0.000000 0.000000 0.000000 0.000000 0.000000 10.000000 
null_rope01_connect 0.000000 0.000000 0.000000 0.000000 0.000000 0.000000 10.000000 
Rope1_Seg01 0.000000 0.000000 0.000000 0.000000 0.000000 0.000000 10.000000 
Rope1_Seg02 0.000000 0.000000 0.000000 0.000000 0.000000 0.000000 10.000000 
Rope1_Seg03 0.000000 0.000000 0.000000 0.000000 0.000000 0.000000 10.000000 
Rope1_Seg04 0.000000 0.000000 0.000000 0.000000 0.000000 0.000000 10.000000 
Rope1_Seg05 0.000000 0.000000 0.000000 0.000000 0.000000 0.000000 10.000000 
Rope1_Seg06 0.000000 0.000000 0.000000 0.000000 0.000000 0.000000 10.000000 
Rope1_Seg07 0.000000 0.000000 0.000000 0.000000 0.000000 0.000000 10.000000 
Rope1_Seg09 0.000000 0.000000 0.000000 0.000000 0.000000 0.000000 10.000000 
L_mid_hand01 0.000000 0.000000 0.000000 0.000000 0.000000 0.000000 10.000000 
L_mid_hand02 0.000000 0.000000 0.000000 0.000000 0.000000 0.000000 10.000000 
L_mid_hand03 0.000000 0.000000 0.000000 0.000000 0.000000 0.000000 10.000000 
null_rope02_connect 0.000000 0.000000 0.000000 0.000000 0.000000 0.000000 10.000000 
Rope2_Seg01 0.000000 0.000000 0.000000 0.000000 0.000000 0.000000 10.000000 
Rope2_Seg02 0.000000 0.000000 0.000000 0.000000 0.000000 0.000000 10.000000 
Rope2_Seg03 0.000000 0.000000 0.000000 0.000000 0.000000 0.000000 10.000000 
Rope2_Seg04 0.000000 0.000000 0.000000 0.000000 0.000000 0.000000 10.000000 
Rope2_Seg05 0.000000 0.000000 0.000000 0.000000 0.000000 0.000000 10.000000 
Rope2_Seg06 0.000000 0.000000 0.000000 0.000000 0.000000 0.000000 10.000000 
Rope2_Seg07 0.000000 0.000000 0.000000 0.000000 0.000000 0.000000 10.000000 
Rope2_Seg09 0.000000 0.000000 0.000000 0.000000 0.000000 0.000000 10.000000 
R_mid_hand01 0.000000 0.000000 0.000000 0.000000 0.000000 0.000000 10.000000 
R_mid_hand02 0.000000 0.000000 0.000000 0.000000 0.000000 0.000000 10.000000 
R_mid_hand03 0.000000 0.000000 0.000000 0.000000 0.000000 0.000000 10.000000 
spine02 0.000000 0.000000 0.000000 0.000000 0.000000 0.000000 10.000000 
spine03 0.000000 0.000000 0.000000 0.000000 0.000000 0.000000 10.000000 
pelvis 0.000000 0.000000 0.000000 0.000000 0.000000 0.000000 10.000000 
null_rope03_connect 0.000000 0.000000 0.000000 0.000000 0.000000 0.000000 10.000000 
null_rope04_connect 0.000000 0.000000 0.000000 0.000000 0.000000 0.000000 10.000000 
Rope3_Seg01 0.000000 0.000000 0.000000 0.000000 0.000000 0.000000 10.000000 
Rope3_Seg02 0.000000 0.000000 0.000000 0.000000 0.000000 0.000000 10.000000 
Rope3_Seg03 0.000000 0.000000 0.000000 0.000000 0.000000 0.000000 10.000000 
Rope3_Seg04 0.000000 0.000000 0.000000 0.000000 0.000000 0.000000 10.000000 
Rope3_Seg05 0.000000 0.000000 0.000000 0.000000 0.000000 0.000000 10.000000 
Rope3_Seg06 0.000000 0.000000 0.000000 0.000000 0.000000 0.000000 10.000000 
Rope3_Seg07 0.000000 0.000000 0.000000 0.000000 0.000000 0.000000 10.000000 
Rope3_Seg08 0.000000 0.000000 0.000000 0.000000 0.000000 0.000000 10.000000 
Rope3_Seg09 0.000000 0.000000 0.000000 0.000000 0.000000 0.000000 10.000000 
R_rear_hand01 0.000000 0.000000 0.000000 0.000000 0.000000 0.000000 10.000000 
R_rear_hand02 0.000000 0.000000 0.000000 0.000000 0.000000 0.000000 10.000000 
R_rear_hand03 0.000000 0.000000 0.000000 0.000000 0.000000 0.000000 10.000000 
Rope4_Seg01 0.000000 0.000000 0.000000 0.000000 0.000000 0.000000 10.000000 
Rope4_Seg02 0.000000 0.000000 0.000000 0.000000 0.000000 0.000000 10.000000 
Rope4_Seg03 0.000000 0.000000 0.000000 0.000000 0.000000 0.000000 10.000000 
Rope4_Seg04 0.000000 0.000000 0.000000 0.000000 0.000000 0.000000 10.000000 
Rope4_Seg05 0.000000 0.000000 0.000000 0.000000 0.000000 0.000000 10.000000 
Rope4_Seg06 0.000000 0.000000 0.000000 0.000000 0.000000 0.000000 10.000000 
Rope4_Seg07 0.000000 0.000000 0.000000 0.000000 0.000000 0.000000 10.000000 
Rope4_Seg08 0.000000 0.000000 0.000000 0.000000 0.000000 0.000000 10.000000 
Rope4_Seg09 0.000000 0.000000 0.000000 0.000000 0.000000 0.000000 10.000000 
L_rear_hand01 0.000000 0.000000 0.000000 0.000000 0.000000 0.000000 10.000000 
L_rear_hand02 0.000000 0.000000 0.000000 0.000000 0.000000 0.000000 10.000000 
L_rear_hand03 0.000000 0.000000 0.000000 0.000000 0.000000 0.000000 10.000000 
#Beginning of Data. Separated by tabs
#Fr	Tx	Ty	Tz	Rx	Ry	Rz	SF
[MASTER]
104 -0.000074 554.566467 0.000000 0.001660 0.001660 0.001660 554.566467
105 -0.000074 554.566467 0.000000 0.001660 0.001660 0.001660 554.566467
[root]
104 -238.375259 440.821869 1092.057251 -95.446884 -24.295855 -95.250580 1201.555542
105 -220.930252 467.358795 1126.626221 -95.425934 -24.306311 -95.398430 1239.564941
[chest]
104 -84.512650 -34.090519 0.000000 -12.804414 2.498519 164.088943 91.129311
105 -84.512650 -34.090519 0.000000 -12.103412 1.643784 159.802002 91.129311
[L_mid_tent01]
104 27.632153 21.986919 -252.055222 9.667293 14.366620 76.948235 254.516785
105 27.625711 21.990612 -252.013809 9.633793 14.222580 76.888290 254.475372
[R_mid_tent01]
104 23.228794 24.509907 226.238495 153.975540 -35.582745 84.442528 228.744751
105 23.228794 24.509907 226.238495 153.897186 -35.619038 84.593857 228.744751
[spine01]
104 -0.361383 -0.195265 0.000000 0.001869 0.001420 15.534141 0.410763
105 -0.361383 -0.195265 0.000000 0.001869 0.001420 15.534141 0.410763
[Bip01_Neck]
104 165.484543 71.581718 0.000119 175.896118 1.177290 24.871183 180.302734
105 165.484543 71.581718 0.000119 175.896118 1.177290 24.871183 180.302734
[L_humerus]
104 -13.983130 -135.272980 -120.471481 168.430527 5.249236 -105.782509 181.680161
105 -13.983130 -135.272980 -120.471481 168.323807 5.447403 -104.975983 181.680161
[R_humerus]
104 -13.983309 -135.273102 125.287651 173.259750 -26.033733 -97.776215 184.909012
105 -13.983309 -135.273102 125.287651 176.247437 -16.861275 -106.768448 184.909012
[weapon_bone]
104 235.964890 -300.705902 0.000000 0.000000 -89.951546 -128.212341 382.234833
105 235.964890 -300.705902 0.000000 0.000000 -89.951546 -128.212341 382.234833
[Bip01_Head]
104 183.627136 144.710281 12.658257 -23.750216 4.314794 -51.050888 234.137192
105 183.670654 145.445526 12.705752 -23.550791 3.994025 -51.717083 234.628967
[eye_left_bone]
104 -24.626970 125.451866 -64.772606 0.000000 -90.000000 -99.840431 143.318359
105 -24.626970 125.451866 -64.772606 0.000000 -90.000000 -99.840431 143.318359
[eye_right_bone]
104 -24.626970 125.451866 64.327362 0.000000 -89.960434 80.159386 143.117676
105 -24.626970 125.451866 64.327362 0.000000 -89.960434 80.159386 143.117676
[L_forearm]
104 322.776093 0.000000 -0.000119 0.000022 -0.002347 -91.069794 322.776093
105 322.776093 0.000000 -0.000119 0.000022 -0.002347 -91.058250 322.776093
[L_front_hand]
104 241.149185 -0.042021 -3.300071 -179.085693 -2.075182 -15.215944 241.171753
105 241.149185 -0.042021 -3.300071 -179.048737 -2.059442 -16.215162 241.171753
[L_weapon_bone]
104 156.183838 0.000000 0.000000 0.000014 0.000007 0.000001 156.183838
105 156.183838 0.000000 0.000000 0.000014 0.000007 0.000001 156.183838
[L_front_hand01_01]
104 86.095154 20.947098 -0.655860 -0.366594 -0.477154 75.385582 88.609184
105 86.095154 20.947098 -0.655860 -0.366594 -0.477154 75.385574 88.609184
[L_front_hand02_01]
104 86.935165 -11.437475 24.513514 154.403519 -59.888931 -61.371990 91.046425
105 86.935165 -11.437475 24.513514 154.403534 -59.888935 -61.372009 91.046425
[L_front_hand03_01]
104 86.637497 -14.123976 -20.424902 -153.913849 58.118122 -62.702866 90.126129
105 86.637497 -14.123976 -20.424902 -153.913849 58.118122 -62.702866 90.126129
[L_front_hand01_02]
104 71.020905 -0.000179 0.000030 0.000938 0.002152 -42.878616 71.020905
105 71.020905 -0.000179 0.000030 0.001370 0.001906 -18.572559 71.020905
[L_front_hand02_02]
104 71.020927 -0.000119 0.000060 0.000938 0.002152 -42.878616 71.020927
105 71.020927 -0.000119 0.000060 0.001370 0.001906 -18.572559 71.020927
[L_front_hand03_02]
104 71.020905 -0.000060 0.000060 0.000938 0.002152 -42.878616 71.020905
105 71.020905 -0.000060 0.000060 0.001370 0.001906 -18.572559 71.020905
[R_forearm]
104 322.776428 -0.000060 0.000030 0.213186 0.007832 -93.590446 322.776428
105 322.776428 -0.000060 0.000030 0.213191 0.007689 -93.513550 322.776428
[R_front_hand]
104 238.847015 -0.006795 2.210259 -116.534431 0.789243 -51.441441 238.857239
105 238.847015 -0.006795 2.210259 -116.534431 0.789243 -51.441441 238.857239
[R_weapon_bone]
104 155.664093 0.002503 -0.000030 0.003487 0.001180 -90.988930 155.664078
105 155.664093 0.002503 -0.000030 0.003487 0.001180 -90.988930 155.664078
[R_front_hand01_01]
104 87.624611 14.231146 22.918642 -154.633499 -59.950619 61.746044 91.683487
105 87.624611 14.231146 22.918642 -154.633499 -59.950619 61.746044 91.683487
[R_front_hand02_01]
104 89.356956 14.367283 -19.491137 154.602661 58.302849 63.744389 92.579636
105 89.356956 14.367283 -19.491137 154.602661 58.302849 63.744389 92.579636
[R_front_hand03_01]
104 87.286232 -22.307278 -0.143439 0.162155 -0.423168 -75.767921 90.091743
105 87.286232 -22.307278 -0.143439 0.162155 -0.423168 -75.767921 90.091743
[R_front_hand01_02]
104 71.020905 0.000060 0.000119 0.002323 -0.000334 106.381714 71.020905
105 71.020905 0.000060 0.000119 0.002323 -0.000334 106.381714 71.020905
[R_front_hand02_02]
104 71.020844 -0.000030 -0.000119 0.002323 -0.000334 106.381714 71.020836
105 71.020844 -0.000030 -0.000119 0.002323 -0.000334 106.381714 71.020836
[R_front_hand03_02]
104 71.020905 0.000000 0.000030 0.002323 -0.000334 106.381714 71.020905
105 71.020905 0.000000 0.000030 0.002323 -0.000334 106.381714 71.020905
[null_rope01_connect]
104 328.732483 0.000000 -0.000238 -113.431908 -63.968765 152.139084 328.732483
105 328.732483 0.000000 -0.000238 -113.118835 -63.989944 151.871155 328.732483
[Rope1_Seg01]
104 6.634083 -4.454407 -0.117492 51.074402 29.985893 -117.553566 7.991658
105 6.632690 -4.458911 -0.092337 56.818535 32.088104 -112.184181 7.992684
[Rope1_Seg02]
104 139.999863 -0.000179 0.000000 -1.989724 3.325076 -8.262765 139.999863
105 139.999863 -0.000179 0.000000 -2.390741 2.064447 -8.593781 139.999863
[Rope1_Seg03]
104 139.999924 0.000060 -0.000060 -3.147104 7.855185 -18.351440 139.999924
105 139.999924 0.000060 -0.000060 -3.135569 4.869084 -17.891249 139.999924
[Rope1_Seg04]
104 139.999924 -0.000060 -0.000119 -2.803020 15.684871 -36.994743 139.999924
105 139.999924 -0.000060 -0.000119 -0.718323 9.340810 -34.012287 139.999924
[Rope1_Seg05]
104 139.999832 0.000119 -0.000060 8.550974 12.738509 -28.471680 139.999832
105 139.999832 0.000119 -0.000060 8.506253 11.514156 -30.962809 139.999832
[Rope1_Seg06]
104 139.999954 0.000119 -0.000060 45.714550 6.097032 -23.628643 139.999954
105 139.999954 0.000119 -0.000060 37.535683 5.572403 -25.523001 139.999954
[Rope1_Seg07]
104 139.999985 0.000060 0.000000 48.791634 -6.880080 -10.740673 139.999985
105 139.999985 0.000060 0.000000 39.746971 -5.834167 -11.147135 139.999985
[Rope1_Seg09]
104 121.602913 0.000119 -0.000089 -89.793175 -1.359789 0.847147 121.602913
105 121.602913 0.000119 -0.000089 -89.793175 -1.359789 0.847147 121.602913
[L_mid_hand01]
104 103.859421 1.038730 8.195221 116.294914 -23.111713 -31.758034 104.187431
105 103.859421 1.038730 8.195221 116.294914 -23.111713 -31.758034 104.187431
[L_mid_hand02]
104 105.572853 -4.139662 -10.864139 -144.219833 17.447468 -35.360519 106.211075
105 105.572853 -4.139662 -10.864139 -144.219833 17.447468 -35.360519 106.211075
[L_mid_hand03]
104 104.641464 17.579376 -3.913581 -17.830780 17.153103 31.982925 106.179977
105 104.641464 17.579376 -3.913581 -17.830780 17.153103 31.982925 106.179977
[null_rope02_connect]
104 328.732849 0.000179 -0.000119 -107.521011 55.650806 35.163376 328.732849
105 328.732849 0.000179 -0.000119 -107.700745 55.710857 35.067150 328.732849
[Rope2_Seg01]
104 0.000018 0.000257 0.000000 25.500351 41.977425 -41.401039 0.000258
105 0.000018 0.000258 0.000000 14.698181 47.733112 -51.847668 0.000259
[Rope2_Seg02]
104 139.999741 -0.000060 -0.000119 6.262285 6.107693 9.243517 139.999756
105 139.999741 -0.000060 -0.000119 3.971027 5.421474 7.517116 139.999756
[Rope2_Seg03]
104 140.000107 0.000030 0.000000 12.768182 15.790055 20.082682 140.000107
105 140.000107 0.000030 0.000000 8.743336 13.919856 17.481468 140.000107
[Rope2_Seg04]
104 139.999802 0.000000 -0.000060 13.806678 30.746557 30.472383 139.999802
105 139.999802 0.000000 -0.000060 14.199117 31.712511 37.531044 139.999802
[Rope2_Seg05]
104 139.999985 -0.000060 0.000119 -0.639851 15.519148 11.599648 139.999985
105 139.999985 -0.000060 0.000119 -1.731528 18.611258 15.910865 139.999985
[Rope2_Seg06]
104 139.999893 -0.000030 -0.000119 -2.095530 8.569131 7.086607 139.999893
105 139.999893 -0.000030 -0.000119 -3.482945 10.749546 8.379341 139.999893
[Rope2_Seg07]
104 139.999893 0.000060 -0.000060 -2.542322 6.963698 6.139273 139.999893
105 139.999893 0.000060 -0.000060 -4.198833 7.952781 7.921990 139.999893
[Rope2_Seg09]
104 121.338966 0.000089 -0.000060 33.793236 -1.359788 -0.847141 121.338966
105 121.338966 0.000089 -0.000060 33.793236 -1.359788 -0.847141 121.338966
[R_mid_hand01]
104 104.680779 11.144459 -10.335981 -41.523792 25.424656 28.595957 105.778534
105 104.680779 11.144459 -10.335981 -41.523792 25.424656 28.595957 105.778534
[R_mid_hand02]
104 104.070427 2.443552 8.231699 72.847389 -32.746803 10.013901 104.424065
105 104.070427 2.443552 8.231699 72.847389 -32.746803 10.013901 104.424065
[R_mid_hand03]
104 106.028137 -11.221827 -5.996406 -167.901306 10.259192 -37.009720 106.788818
105 106.028137 -11.221827 -5.996406 -167.901306 10.259192 -37.009720 106.788818
[spine02]
104 129.756927 0.001550 0.000119 -0.245322 -4.052060 -4.355547 129.756927
105 129.756927 0.001550 0.000119 -0.245322 -4.052059 -4.355546 129.756927
[spine03]
104 78.613846 0.087372 -4.898873 0.369658 4.260732 -4.885719 78.766380
105 78.613846 0.087372 -4.898873 0.369658 4.260732 -4.885719 78.766380
[pelvis]
104 169.435242 0.051022 0.000000 -0.010007 -0.191417 -1.897554 169.435257
105 169.435242 0.051022 0.000000 -0.010007 -0.191417 -1.897554 169.435257
[null_rope03_connect]
104 -1.257226 -2.466202 137.391083 -121.726250 -81.358322 -128.573044 137.418976
105 -1.257226 -2.466202 137.391083 -121.134789 -81.250504 -129.161713 137.418976
[null_rope04_connect]
104 -1.259640 -2.480268 -137.844437 -121.726250 -81.358322 -128.573044 137.872513
105 -1.259640 -2.480268 -137.844437 -121.134789 -81.250504 -129.161713 137.872513
[Rope3_Seg01]
104 0.000000 0.000000 0.000000 -22.138592 -51.624664 -22.478580 0.000000
105 0.000000 0.000000 0.000000 -16.024046 -50.735970 -29.031158 0.000000
[Rope3_Seg02]
104 139.999924 -0.000119 0.000060 -1.137629 -1.603824 4.302172 139.999924
105 139.999924 -0.000119 0.000060 -1.007048 -1.513744 4.413309 139.999924
[Rope3_Seg03]
104 139.999924 -0.000119 0.000119 -2.223681 -2.548193 6.476775 139.999924
105 139.999924 -0.000119 0.000119 -2.092085 -2.455775 6.808903 139.999924
[Rope3_Seg04]
104 139.999924 0.000119 0.000000 -5.155608 -4.606697 10.623359 139.999924
105 139.999924 0.000119 0.000000 -5.281318 -4.617483 11.629974 139.999924
[Rope3_Seg05]
104 139.999924 -0.000238 0.000060 -18.778660 -12.423709 23.417538 139.999924
105 139.999924 -0.000238 0.000060 -21.051405 -12.894163 26.333023 139.999924
[Rope3_Seg06]
104 139.999893 -0.000119 -0.000060 -20.230152 -15.811646 16.966379 139.999893
105 139.999893 -0.000119 -0.000060 -22.287128 -16.847307 18.073763 139.999893
[Rope3_Seg07]
104 139.999771 0.000060 -0.000119 -2.482320 -2.568771 2.640422 139.999771
105 139.999771 0.000060 -0.000119 -3.627597 -3.784966 3.151824 139.999771
[Rope3_Seg08]
104 139.999985 -0.000060 0.000000 -3.484590 -3.908577 2.784389 139.999985
105 139.999985 -0.000060 0.000000 -4.356118 -5.003825 3.035959 139.999985
[Rope3_Seg09]
104 90.185997 -0.000179 -0.000060 89.793228 -1.359877 -0.847183 90.185997
105 90.185997 -0.000179 -0.000060 89.793228 -1.359877 -0.847183 90.185997
[R_rear_hand01]
104 103.366196 -6.073594 -10.757982 -161.551193 16.666374 -30.088671 104.101845
105 103.366196 -6.073594 -10.757982 -161.551193 16.666374 -30.088671 104.101845
[R_rear_hand02]
104 100.509819 12.039542 -7.992327 -34.280552 19.289745 28.875523 101.543350
105 100.509819 12.039542 -7.992327 -34.280552 19.289745 28.875523 101.543350
[R_rear_hand03]
104 101.539970 5.215704 5.435467 83.366440 -30.933914 7.284830 101.819031
105 101.539970 5.215704 5.435467 83.366440 -30.933914 7.284830 101.819031
[Rope4_Seg01]
104 -0.000012 -0.000024 0.000048 -81.269798 -24.369663 -144.115570 0.000055
105 -0.000012 -0.000023 0.000047 -82.206734 -25.087088 -142.318893 0.000054
[Rope4_Seg02]
104 139.999985 0.000060 0.000119 5.622107 13.168786 -2.888418 139.999985
105 139.999985 0.000060 0.000119 4.906688 13.308247 -1.937608 139.999985
[Rope4_Seg03]
104 139.999924 0.000000 -0.000238 19.988073 24.015308 -8.455561 139.999924
105 139.999924 0.000000 -0.000238 18.970293 24.801258 -6.328242 139.999924
[Rope4_Seg04]
104 139.999985 0.000000 0.000119 36.154095 21.121393 -21.223604 139.999985
105 139.999985 0.000000 0.000119 40.173141 23.564957 -19.034189 139.999985
[Rope4_Seg05]
104 139.999802 -0.000060 -0.000119 17.613266 3.483199 -16.803625 139.999802
105 139.999802 -0.000060 -0.000119 20.168299 4.116937 -16.689135 139.999802
[Rope4_Seg06]
104 139.999924 0.000000 0.000060 17.751192 0.918044 -27.601992 139.999924
105 139.999924 0.000000 0.000060 19.786600 0.638871 -27.737368 139.999924
[Rope4_Seg07]
104 139.999802 0.000000 0.000000 9.937110 -8.561249 -32.226883 139.999802
105 139.999802 0.000000 0.000000 11.030937 -10.037660 -32.271130 139.999802
[Rope4_Seg08]
104 139.999924 0.000000 0.000119 -0.878079 -5.730636 -12.632652 139.999924
105 139.999924 0.000000 0.000119 -0.638560 -6.458234 -12.360650 139.999924
[Rope4_Seg09]
104 90.185791 0.000060 0.000060 -135.617828 2.228885 0.850567 90.185791
105 90.185791 0.000060 0.000060 -135.617828 2.228885 0.850567 90.185791
[L_rear_hand01]
104 101.696655 -8.392275 -7.654577 -34.454281 -18.946800 151.655121 102.329041
105 101.696655 -8.392275 -7.654577 -34.454281 -18.946800 151.655121 102.329041
[L_rear_hand02]
104 102.726799 -1.568258 5.773216 83.407906 30.330435 172.796509 102.900848
105 102.726799 -1.568258 5.773216 83.407906 30.330435 172.796509 102.900848
[L_rear_hand03]
104 104.552910 9.721220 -10.420293 -161.379868 -16.473232 -150.512238 105.519653
105 104.552910 9.721220 -10.420293 -161.379868 -16.473232 -150.512238 105.519653
